<mxfile host="Electron" modified="2024-07-24T01:04:46.060Z" agent="Mozilla/5.0 (Windows NT 10.0; Win64; x64) AppleWebKit/537.36 (KHTML, like Gecko) draw.io/21.6.1 Chrome/112.0.5615.204 Electron/24.6.1 Safari/537.36" etag="vodHhTKOfL5wGnBUl0FL" version="21.6.1" type="device">
  <diagram name="第 1 页" id="eE3fHEXswbHY-f9UicwJ">
    <mxGraphModel dx="1467" dy="200" grid="1" gridSize="10" guides="1" tooltips="1" connect="1" arrows="1" fold="1" page="1" pageScale="1" pageWidth="1169" pageHeight="827" math="0" shadow="0">
      <root>
        <mxCell id="0" />
        <mxCell id="1" parent="0" />
        <mxCell id="02nY0yU2g49zin4ahf_P-1" value="开始" style="rounded=1;whiteSpace=wrap;html=1;fontSize=16;" parent="1" vertex="1">
          <mxGeometry x="480" y="120" width="120" height="40" as="geometry" />
        </mxCell>
        <mxCell id="02nY0yU2g49zin4ahf_P-4" value="BaseHandlers" style="text;html=1;strokeColor=none;fillColor=none;align=center;verticalAlign=middle;whiteSpace=wrap;rounded=0;fontSize=26;fontStyle=1" parent="1" vertex="1">
          <mxGeometry x="-1120" y="40" width="200" height="80" as="geometry" />
        </mxCell>
        <mxCell id="02nY0yU2g49zin4ahf_P-5" value="全局属性(默认值)：&lt;br&gt;_isReadonly = false&lt;br&gt;_isShallow = false&amp;nbsp;" style="rounded=1;whiteSpace=wrap;html=1;fontSize=16;" parent="1" vertex="1">
          <mxGeometry x="400" y="240" width="280" height="80" as="geometry" />
        </mxCell>
        <mxCell id="02nY0yU2g49zin4ahf_P-10" value="" style="endArrow=classic;html=1;rounded=0;exitX=0.5;exitY=1;exitDx=0;exitDy=0;" parent="1" source="02nY0yU2g49zin4ahf_P-1" target="02nY0yU2g49zin4ahf_P-5" edge="1">
          <mxGeometry width="50" height="50" relative="1" as="geometry">
            <mxPoint x="170" y="310" as="sourcePoint" />
            <mxPoint x="220" y="260" as="targetPoint" />
          </mxGeometry>
        </mxCell>
        <mxCell id="02nY0yU2g49zin4ahf_P-13" value="get(target: Target,&lt;br&gt;key: string | symbol,&lt;br&gt;receiver: object)" style="rounded=1;whiteSpace=wrap;html=1;fontSize=16;" parent="1" vertex="1">
          <mxGeometry x="240" y="527.27" width="200" height="80" as="geometry" />
        </mxCell>
        <mxCell id="02nY0yU2g49zin4ahf_P-15" value="&lt;div style=&quot;font-family: Consolas, &amp;quot;Courier New&amp;quot;, monospace; font-size: 20px; line-height: 27px;&quot;&gt;&lt;span style=&quot;background-color: rgb(255, 255, 255);&quot;&gt;MutableReactiveHandler类&lt;/span&gt;&lt;/div&gt;&lt;div style=&quot;font-family: Consolas, &amp;quot;Courier New&amp;quot;, monospace; font-size: 20px; line-height: 27px;&quot;&gt;_isReadonly = false&lt;/div&gt;&lt;div style=&quot;font-family: Consolas, &amp;quot;Courier New&amp;quot;, monospace; font-size: 20px; line-height: 27px;&quot;&gt;_isShall = false&lt;/div&gt;" style="rounded=1;whiteSpace=wrap;html=1;fontSize=16;" parent="1" vertex="1">
          <mxGeometry x="200" y="400" width="280" height="80" as="geometry" />
        </mxCell>
        <mxCell id="02nY0yU2g49zin4ahf_P-16" value="" style="endArrow=classic;html=1;rounded=0;exitX=0.5;exitY=1;exitDx=0;exitDy=0;entryX=0.5;entryY=0;entryDx=0;entryDy=0;" parent="1" source="02nY0yU2g49zin4ahf_P-5" target="02nY0yU2g49zin4ahf_P-15" edge="1">
          <mxGeometry width="50" height="50" relative="1" as="geometry">
            <mxPoint x="740" y="440" as="sourcePoint" />
            <mxPoint x="790" y="390" as="targetPoint" />
          </mxGeometry>
        </mxCell>
        <mxCell id="02nY0yU2g49zin4ahf_P-19" value="Reactive" style="edgeLabel;html=1;align=center;verticalAlign=middle;resizable=0;points=[];fontSize=16;" parent="02nY0yU2g49zin4ahf_P-16" vertex="1" connectable="0">
          <mxGeometry x="-0.0945" relative="1" as="geometry">
            <mxPoint x="-10" y="4" as="offset" />
          </mxGeometry>
        </mxCell>
        <mxCell id="02nY0yU2g49zin4ahf_P-17" value="" style="endArrow=classic;html=1;rounded=0;exitX=0.5;exitY=1;exitDx=0;exitDy=0;entryX=0.5;entryY=0;entryDx=0;entryDy=0;" parent="1" source="02nY0yU2g49zin4ahf_P-15" target="02nY0yU2g49zin4ahf_P-13" edge="1">
          <mxGeometry width="50" height="50" relative="1" as="geometry">
            <mxPoint x="550" y="580" as="sourcePoint" />
            <mxPoint x="600" y="530" as="targetPoint" />
          </mxGeometry>
        </mxCell>
        <mxCell id="02nY0yU2g49zin4ahf_P-18" value="get拦截" style="edgeLabel;html=1;align=center;verticalAlign=middle;resizable=0;points=[];fontSize=16;" parent="02nY0yU2g49zin4ahf_P-17" vertex="1" connectable="0">
          <mxGeometry x="-0.1804" y="-3" relative="1" as="geometry">
            <mxPoint as="offset" />
          </mxGeometry>
        </mxCell>
        <mxCell id="02nY0yU2g49zin4ahf_P-21" value="判断属性是否为&lt;br&gt;ReactiveFlags.IS_REACTIVE" style="rhombus;whiteSpace=wrap;html=1;fontSize=16;" parent="1" vertex="1">
          <mxGeometry x="180" y="647.27" width="320" height="80" as="geometry" />
        </mxCell>
        <mxCell id="02nY0yU2g49zin4ahf_P-22" value="" style="endArrow=classic;html=1;rounded=0;exitX=0.5;exitY=1;exitDx=0;exitDy=0;entryX=0.5;entryY=0;entryDx=0;entryDy=0;" parent="1" source="02nY0yU2g49zin4ahf_P-13" target="02nY0yU2g49zin4ahf_P-21" edge="1">
          <mxGeometry width="50" height="50" relative="1" as="geometry">
            <mxPoint x="632" y="657.27" as="sourcePoint" />
            <mxPoint x="682" y="607.27" as="targetPoint" />
          </mxGeometry>
        </mxCell>
        <mxCell id="02nY0yU2g49zin4ahf_P-23" value="结束" style="rounded=1;whiteSpace=wrap;html=1;fontSize=16;" parent="1" vertex="1">
          <mxGeometry x="820" y="2920" width="120" height="40" as="geometry" />
        </mxCell>
        <mxCell id="02nY0yU2g49zin4ahf_P-24" value="return !_isReadonly" style="rounded=1;whiteSpace=wrap;html=1;fontSize=16;" parent="1" vertex="1">
          <mxGeometry x="-1090" y="760" width="160" height="40" as="geometry" />
        </mxCell>
        <mxCell id="02nY0yU2g49zin4ahf_P-25" value="" style="endArrow=classic;html=1;rounded=0;exitX=0;exitY=0.5;exitDx=0;exitDy=0;entryX=0.5;entryY=0;entryDx=0;entryDy=0;" parent="1" source="02nY0yU2g49zin4ahf_P-21" target="02nY0yU2g49zin4ahf_P-24" edge="1">
          <mxGeometry width="50" height="50" relative="1" as="geometry">
            <mxPoint x="282" y="907.27" as="sourcePoint" />
            <mxPoint x="332" y="857.27" as="targetPoint" />
            <Array as="points">
              <mxPoint x="-1010" y="690" />
            </Array>
          </mxGeometry>
        </mxCell>
        <mxCell id="02nY0yU2g49zin4ahf_P-27" value="Y" style="edgeLabel;html=1;align=center;verticalAlign=middle;resizable=0;points=[];fontSize=16;" parent="02nY0yU2g49zin4ahf_P-25" vertex="1" connectable="0">
          <mxGeometry x="0.1676" y="-2" relative="1" as="geometry">
            <mxPoint x="33" y="2" as="offset" />
          </mxGeometry>
        </mxCell>
        <mxCell id="02nY0yU2g49zin4ahf_P-26" value="" style="endArrow=classic;html=1;rounded=0;exitX=0.5;exitY=1;exitDx=0;exitDy=0;entryX=0;entryY=0.5;entryDx=0;entryDy=0;" parent="1" source="02nY0yU2g49zin4ahf_P-24" target="02nY0yU2g49zin4ahf_P-23" edge="1">
          <mxGeometry width="50" height="50" relative="1" as="geometry">
            <mxPoint x="450" y="1330" as="sourcePoint" />
            <mxPoint x="500" y="1280" as="targetPoint" />
            <Array as="points">
              <mxPoint x="-1010" y="2940" />
            </Array>
          </mxGeometry>
        </mxCell>
        <mxCell id="02nY0yU2g49zin4ahf_P-28" value="判断属性是否为&lt;br&gt;ReactiveFlags.IS_READONLY" style="rhombus;whiteSpace=wrap;html=1;fontSize=16;" parent="1" vertex="1">
          <mxGeometry x="180" y="767.27" width="320" height="80" as="geometry" />
        </mxCell>
        <mxCell id="02nY0yU2g49zin4ahf_P-29" value="" style="endArrow=classic;html=1;rounded=0;exitX=0.5;exitY=1;exitDx=0;exitDy=0;" parent="1" source="02nY0yU2g49zin4ahf_P-21" target="02nY0yU2g49zin4ahf_P-28" edge="1">
          <mxGeometry width="50" height="50" relative="1" as="geometry">
            <mxPoint x="522" y="777.27" as="sourcePoint" />
            <mxPoint x="572" y="727.27" as="targetPoint" />
          </mxGeometry>
        </mxCell>
        <mxCell id="02nY0yU2g49zin4ahf_P-43" value="N" style="edgeLabel;html=1;align=center;verticalAlign=middle;resizable=0;points=[];fontSize=16;" parent="02nY0yU2g49zin4ahf_P-29" vertex="1" connectable="0">
          <mxGeometry x="-0.0857" relative="1" as="geometry">
            <mxPoint as="offset" />
          </mxGeometry>
        </mxCell>
        <mxCell id="02nY0yU2g49zin4ahf_P-30" value="return _isReadonly" style="rounded=1;whiteSpace=wrap;html=1;fontSize=16;" parent="1" vertex="1">
          <mxGeometry x="-930" y="880" width="160" height="40" as="geometry" />
        </mxCell>
        <mxCell id="02nY0yU2g49zin4ahf_P-31" value="" style="endArrow=classic;html=1;rounded=0;entryX=0.5;entryY=0;entryDx=0;entryDy=0;exitX=0;exitY=0.5;exitDx=0;exitDy=0;" parent="1" source="02nY0yU2g49zin4ahf_P-28" target="02nY0yU2g49zin4ahf_P-30" edge="1">
          <mxGeometry width="50" height="50" relative="1" as="geometry">
            <mxPoint x="22" y="817.27" as="sourcePoint" />
            <mxPoint x="72" y="767.27" as="targetPoint" />
            <Array as="points">
              <mxPoint x="-850" y="810" />
            </Array>
          </mxGeometry>
        </mxCell>
        <mxCell id="02nY0yU2g49zin4ahf_P-38" value="Y" style="edgeLabel;html=1;align=center;verticalAlign=middle;resizable=0;points=[];fontSize=16;" parent="02nY0yU2g49zin4ahf_P-31" vertex="1" connectable="0">
          <mxGeometry x="-0.3057" y="-3" relative="1" as="geometry">
            <mxPoint as="offset" />
          </mxGeometry>
        </mxCell>
        <mxCell id="02nY0yU2g49zin4ahf_P-33" value="" style="endArrow=classic;html=1;rounded=0;exitX=0.5;exitY=1;exitDx=0;exitDy=0;entryX=0;entryY=0.5;entryDx=0;entryDy=0;" parent="1" source="02nY0yU2g49zin4ahf_P-30" target="02nY0yU2g49zin4ahf_P-23" edge="1">
          <mxGeometry width="50" height="50" relative="1" as="geometry">
            <mxPoint x="230" y="1210" as="sourcePoint" />
            <mxPoint x="280" y="1160" as="targetPoint" />
            <Array as="points">
              <mxPoint x="-850" y="2940" />
            </Array>
          </mxGeometry>
        </mxCell>
        <mxCell id="02nY0yU2g49zin4ahf_P-34" value="判断属性是否为&lt;br&gt;ReactiveFlags.IS_SHALLOW" style="rhombus;whiteSpace=wrap;html=1;fontSize=16;" parent="1" vertex="1">
          <mxGeometry x="180" y="887.27" width="320" height="80" as="geometry" />
        </mxCell>
        <mxCell id="02nY0yU2g49zin4ahf_P-35" value="" style="endArrow=classic;html=1;rounded=0;exitX=0.5;exitY=1;exitDx=0;exitDy=0;entryX=0.5;entryY=0;entryDx=0;entryDy=0;" parent="1" source="02nY0yU2g49zin4ahf_P-28" target="02nY0yU2g49zin4ahf_P-34" edge="1">
          <mxGeometry width="50" height="50" relative="1" as="geometry">
            <mxPoint x="522" y="857.27" as="sourcePoint" />
            <mxPoint x="522" y="897.27" as="targetPoint" />
          </mxGeometry>
        </mxCell>
        <mxCell id="02nY0yU2g49zin4ahf_P-44" value="N" style="edgeLabel;html=1;align=center;verticalAlign=middle;resizable=0;points=[];fontSize=16;" parent="02nY0yU2g49zin4ahf_P-35" vertex="1" connectable="0">
          <mxGeometry x="-0.2286" y="-1" relative="1" as="geometry">
            <mxPoint as="offset" />
          </mxGeometry>
        </mxCell>
        <mxCell id="02nY0yU2g49zin4ahf_P-36" value="return _isShallow" style="rounded=1;whiteSpace=wrap;html=1;fontSize=16;" parent="1" vertex="1">
          <mxGeometry x="-770" y="1000" width="160" height="40" as="geometry" />
        </mxCell>
        <mxCell id="02nY0yU2g49zin4ahf_P-37" value="" style="endArrow=classic;html=1;rounded=0;exitX=0;exitY=0.5;exitDx=0;exitDy=0;entryX=0.5;entryY=0;entryDx=0;entryDy=0;" parent="1" source="02nY0yU2g49zin4ahf_P-34" target="02nY0yU2g49zin4ahf_P-36" edge="1">
          <mxGeometry width="50" height="50" relative="1" as="geometry">
            <mxPoint x="92" y="937.27" as="sourcePoint" />
            <mxPoint x="142" y="887.27" as="targetPoint" />
            <Array as="points">
              <mxPoint x="-690" y="930" />
            </Array>
          </mxGeometry>
        </mxCell>
        <mxCell id="02nY0yU2g49zin4ahf_P-39" value="Y" style="edgeLabel;html=1;align=center;verticalAlign=middle;resizable=0;points=[];fontSize=16;" parent="02nY0yU2g49zin4ahf_P-37" vertex="1" connectable="0">
          <mxGeometry x="-0.3437" relative="1" as="geometry">
            <mxPoint as="offset" />
          </mxGeometry>
        </mxCell>
        <mxCell id="02nY0yU2g49zin4ahf_P-40" value="" style="endArrow=classic;html=1;rounded=0;exitX=0.5;exitY=1;exitDx=0;exitDy=0;entryX=0;entryY=0.5;entryDx=0;entryDy=0;" parent="1" source="02nY0yU2g49zin4ahf_P-54" target="02nY0yU2g49zin4ahf_P-23" edge="1">
          <mxGeometry width="50" height="50" relative="1" as="geometry">
            <mxPoint x="-50" y="1130" as="sourcePoint" />
            <mxPoint x="400" y="1270" as="targetPoint" />
            <Array as="points">
              <mxPoint x="-290" y="2940" />
            </Array>
          </mxGeometry>
        </mxCell>
        <mxCell id="02nY0yU2g49zin4ahf_P-41" value="判断属性是否为&lt;br&gt;ReactiveFlags.RAW" style="rhombus;whiteSpace=wrap;html=1;fontSize=16;" parent="1" vertex="1">
          <mxGeometry x="180" y="1007.27" width="320" height="80" as="geometry" />
        </mxCell>
        <mxCell id="02nY0yU2g49zin4ahf_P-42" value="" style="endArrow=classic;html=1;rounded=0;exitX=0.5;exitY=1;exitDx=0;exitDy=0;" parent="1" source="02nY0yU2g49zin4ahf_P-34" target="02nY0yU2g49zin4ahf_P-41" edge="1">
          <mxGeometry width="50" height="50" relative="1" as="geometry">
            <mxPoint x="602" y="1007.27" as="sourcePoint" />
            <mxPoint x="602" y="1047.27" as="targetPoint" />
          </mxGeometry>
        </mxCell>
        <mxCell id="02nY0yU2g49zin4ahf_P-45" value="N" style="edgeLabel;html=1;align=center;verticalAlign=middle;resizable=0;points=[];fontSize=16;" parent="02nY0yU2g49zin4ahf_P-42" vertex="1" connectable="0">
          <mxGeometry x="-0.2114" relative="1" as="geometry">
            <mxPoint as="offset" />
          </mxGeometry>
        </mxCell>
        <mxCell id="02nY0yU2g49zin4ahf_P-46" value="" style="endArrow=classic;html=1;rounded=0;entryX=0.5;entryY=0;entryDx=0;entryDy=0;" parent="1" source="02nY0yU2g49zin4ahf_P-41" target="02nY0yU2g49zin4ahf_P-52" edge="1">
          <mxGeometry width="50" height="50" relative="1" as="geometry">
            <mxPoint x="-98" y="1047.27" as="sourcePoint" />
            <mxPoint x="-318" y="1087.27" as="targetPoint" />
            <Array as="points">
              <mxPoint x="-291" y="1050" />
            </Array>
          </mxGeometry>
        </mxCell>
        <mxCell id="02nY0yU2g49zin4ahf_P-49" value="Y" style="edgeLabel;html=1;align=center;verticalAlign=middle;resizable=0;points=[];fontSize=16;" parent="02nY0yU2g49zin4ahf_P-46" vertex="1" connectable="0">
          <mxGeometry x="-0.1689" relative="1" as="geometry">
            <mxPoint as="offset" />
          </mxGeometry>
        </mxCell>
        <mxCell id="02nY0yU2g49zin4ahf_P-51" value="" style="endArrow=classic;html=1;rounded=0;exitX=0.5;exitY=1;exitDx=0;exitDy=0;entryX=0.5;entryY=0;entryDx=0;entryDy=0;" parent="1" source="02nY0yU2g49zin4ahf_P-41" target="02nY0yU2g49zin4ahf_P-68" edge="1">
          <mxGeometry width="50" height="50" relative="1" as="geometry">
            <mxPoint x="482" y="1167.27" as="sourcePoint" />
            <mxPoint x="490" y="1120" as="targetPoint" />
          </mxGeometry>
        </mxCell>
        <mxCell id="02nY0yU2g49zin4ahf_P-52" value="判断receiver 是否等于对应weakMap.get(target)的值【PS: weakMap 为存储target &amp;amp; proxy 的映射】 或者 target的原型 是否等于 receiver的原型" style="rhombus;whiteSpace=wrap;html=1;fontSize=16;" parent="1" vertex="1">
          <mxGeometry x="-444" y="1072.73" width="306" height="120" as="geometry" />
        </mxCell>
        <mxCell id="02nY0yU2g49zin4ahf_P-56" value="" style="endArrow=classic;html=1;rounded=0;exitX=0.5;exitY=1;exitDx=0;exitDy=0;entryX=0;entryY=0.5;entryDx=0;entryDy=0;" parent="1" source="02nY0yU2g49zin4ahf_P-36" target="02nY0yU2g49zin4ahf_P-23" edge="1">
          <mxGeometry width="50" height="50" relative="1" as="geometry">
            <mxPoint x="-520" y="1080" as="sourcePoint" />
            <mxPoint x="610" y="1540" as="targetPoint" />
            <Array as="points">
              <mxPoint x="-700" y="2940" />
            </Array>
          </mxGeometry>
        </mxCell>
        <mxCell id="02nY0yU2g49zin4ahf_P-54" value="return&amp;nbsp;" style="rounded=1;whiteSpace=wrap;html=1;fontSize=16;" parent="1" vertex="1">
          <mxGeometry x="-371" y="1240" width="160" height="40" as="geometry" />
        </mxCell>
        <mxCell id="02nY0yU2g49zin4ahf_P-58" value="" style="endArrow=classic;html=1;rounded=0;entryX=0.5;entryY=0;entryDx=0;entryDy=0;exitX=0.5;exitY=1;exitDx=0;exitDy=0;" parent="1" source="02nY0yU2g49zin4ahf_P-52" target="02nY0yU2g49zin4ahf_P-54" edge="1">
          <mxGeometry width="50" height="50" relative="1" as="geometry">
            <mxPoint x="-498" y="1210" as="sourcePoint" />
            <mxPoint x="-558" y="1140" as="targetPoint" />
            <Array as="points" />
          </mxGeometry>
        </mxCell>
        <mxCell id="02nY0yU2g49zin4ahf_P-62" value="N" style="edgeLabel;html=1;align=center;verticalAlign=middle;resizable=0;points=[];fontSize=16;" parent="02nY0yU2g49zin4ahf_P-58" vertex="1" connectable="0">
          <mxGeometry x="-0.1617" y="-4" relative="1" as="geometry">
            <mxPoint x="4" as="offset" />
          </mxGeometry>
        </mxCell>
        <mxCell id="02nY0yU2g49zin4ahf_P-59" value="return target" style="rounded=1;whiteSpace=wrap;html=1;fontSize=16;" parent="1" vertex="1">
          <mxGeometry x="-610" y="1240" width="160" height="40" as="geometry" />
        </mxCell>
        <mxCell id="02nY0yU2g49zin4ahf_P-60" value="" style="endArrow=classic;html=1;rounded=0;exitX=0;exitY=0.5;exitDx=0;exitDy=0;entryX=0.5;entryY=0;entryDx=0;entryDy=0;" parent="1" source="02nY0yU2g49zin4ahf_P-52" target="02nY0yU2g49zin4ahf_P-59" edge="1">
          <mxGeometry width="50" height="50" relative="1" as="geometry">
            <mxPoint x="-358" y="1180" as="sourcePoint" />
            <mxPoint x="-308" y="1130" as="targetPoint" />
            <Array as="points">
              <mxPoint x="-530" y="1132.73" />
            </Array>
          </mxGeometry>
        </mxCell>
        <mxCell id="02nY0yU2g49zin4ahf_P-63" value="Y&lt;br style=&quot;font-size: 16px;&quot;&gt;" style="edgeLabel;html=1;align=center;verticalAlign=middle;resizable=0;points=[];fontSize=16;" parent="02nY0yU2g49zin4ahf_P-60" vertex="1" connectable="0">
          <mxGeometry x="-0.237" y="-2" relative="1" as="geometry">
            <mxPoint x="20" y="3" as="offset" />
          </mxGeometry>
        </mxCell>
        <mxCell id="02nY0yU2g49zin4ahf_P-61" value="" style="endArrow=classic;html=1;rounded=0;exitX=0.5;exitY=1;exitDx=0;exitDy=0;entryX=0;entryY=0.5;entryDx=0;entryDy=0;" parent="1" source="02nY0yU2g49zin4ahf_P-59" target="02nY0yU2g49zin4ahf_P-23" edge="1">
          <mxGeometry width="50" height="50" relative="1" as="geometry">
            <mxPoint x="100" y="1480" as="sourcePoint" />
            <mxPoint x="612.2222222222222" y="1540" as="targetPoint" />
            <Array as="points">
              <mxPoint x="-530" y="2940" />
            </Array>
          </mxGeometry>
        </mxCell>
        <mxCell id="02nY0yU2g49zin4ahf_P-64" value="&lt;b&gt;问题记录：&lt;/b&gt;&lt;br&gt;1. 在获取属性ReactiveFlags.RAW值为啥需要通过比较当前receiver 是否存在于记录对象中？而不是直接返回target对象？为啥需要额外判断原型对象是否相等？&lt;br&gt;&lt;br&gt;2.&amp;nbsp;" style="text;html=1;strokeColor=none;fillColor=none;align=left;verticalAlign=top;whiteSpace=wrap;rounded=0;fontSize=16;" parent="1" vertex="1">
          <mxGeometry x="-560" y="120" width="360" height="210" as="geometry" />
        </mxCell>
        <mxCell id="02nY0yU2g49zin4ahf_P-65" value="&lt;b&gt;Note：&lt;/b&gt;&lt;br&gt;1. BaseHandlers.ts文件中存在三个类型，分别为BaseReactiveHandler、&lt;br&gt;MutableReactiveHandler、ReadonlyReactiveHandler。&lt;br&gt;&lt;br&gt;2. Reactive对象根据是否深层响应式，分为两种类型Reactive、shallowReactive。&lt;br&gt;&lt;br&gt;3. 记录对象 -&amp;gt; weakMap。【存储target &amp;amp; reactiveProxy】&lt;br&gt;&lt;br&gt;4.&amp;nbsp;arrayInstrumentations 结构 --&amp;gt; Record&amp;lt;string, function&amp;gt; 。包含属性为&lt;br&gt;includes、indexOf、lastIndexOf、push、pop、shift、unshift、splice。" style="text;html=1;strokeColor=none;fillColor=none;align=left;verticalAlign=top;whiteSpace=wrap;rounded=0;fontSize=16;" parent="1" vertex="1">
          <mxGeometry x="-1120" y="120" width="520" height="370" as="geometry" />
        </mxCell>
        <mxCell id="02nY0yU2g49zin4ahf_P-66" value="判断!isReadonly" style="rhombus;whiteSpace=wrap;html=1;fontSize=16;" parent="1" vertex="1">
          <mxGeometry x="180" y="1200" width="320" height="80" as="geometry" />
        </mxCell>
        <mxCell id="02nY0yU2g49zin4ahf_P-68" value="const targetIsArray = isArray(target)" style="rounded=1;whiteSpace=wrap;html=1;fontSize=16;" parent="1" vertex="1">
          <mxGeometry x="199" y="1120" width="282" height="40" as="geometry" />
        </mxCell>
        <mxCell id="02nY0yU2g49zin4ahf_P-69" value="" style="endArrow=classic;html=1;rounded=0;exitX=0.5;exitY=1;exitDx=0;exitDy=0;entryX=0.5;entryY=0;entryDx=0;entryDy=0;" parent="1" source="02nY0yU2g49zin4ahf_P-68" target="02nY0yU2g49zin4ahf_P-66" edge="1">
          <mxGeometry width="50" height="50" relative="1" as="geometry">
            <mxPoint x="380" y="1167" as="sourcePoint" />
            <mxPoint x="380" y="1200" as="targetPoint" />
          </mxGeometry>
        </mxCell>
        <mxCell id="02nY0yU2g49zin4ahf_P-70" value="判断targetIsArray &amp;amp;&amp;amp; hasOwn(arrayInstrumentations&lt;span style=&quot;background-color: rgb(255, 255, 255);&quot;&gt;,key&lt;/span&gt;&lt;span style=&quot;background-color: initial;&quot;&gt;)&lt;/span&gt;" style="rhombus;whiteSpace=wrap;html=1;fontSize=16;" parent="1" vertex="1">
          <mxGeometry x="180" y="1320" width="320" height="80" as="geometry" />
        </mxCell>
        <mxCell id="02nY0yU2g49zin4ahf_P-71" value="" style="endArrow=classic;html=1;rounded=0;exitX=0.5;exitY=1;exitDx=0;exitDy=0;" parent="1" source="02nY0yU2g49zin4ahf_P-66" target="02nY0yU2g49zin4ahf_P-70" edge="1">
          <mxGeometry width="50" height="50" relative="1" as="geometry">
            <mxPoint x="470" y="1340" as="sourcePoint" />
            <mxPoint x="520" y="1290" as="targetPoint" />
          </mxGeometry>
        </mxCell>
        <mxCell id="02nY0yU2g49zin4ahf_P-72" value="Y" style="edgeLabel;html=1;align=center;verticalAlign=middle;resizable=0;points=[];fontSize=16;" parent="02nY0yU2g49zin4ahf_P-71" vertex="1" connectable="0">
          <mxGeometry x="-0.1823" y="-1" relative="1" as="geometry">
            <mxPoint as="offset" />
          </mxGeometry>
        </mxCell>
        <mxCell id="02nY0yU2g49zin4ahf_P-73" value="判断key === &quot;hasOwnProperty&quot;" style="rhombus;whiteSpace=wrap;html=1;fontSize=16;" parent="1" vertex="1">
          <mxGeometry x="180" y="1480" width="320" height="80" as="geometry" />
        </mxCell>
        <mxCell id="02nY0yU2g49zin4ahf_P-74" value="" style="endArrow=classic;html=1;rounded=0;exitX=0.5;exitY=1;exitDx=0;exitDy=0;entryX=0.5;entryY=0;entryDx=0;entryDy=0;" parent="1" source="02nY0yU2g49zin4ahf_P-70" target="02nY0yU2g49zin4ahf_P-73" edge="1">
          <mxGeometry width="50" height="50" relative="1" as="geometry">
            <mxPoint x="530" y="1450" as="sourcePoint" />
            <mxPoint x="580" y="1400" as="targetPoint" />
          </mxGeometry>
        </mxCell>
        <mxCell id="02nY0yU2g49zin4ahf_P-75" value="&lt;div style=&quot;font-family: Consolas, &amp;quot;Courier New&amp;quot;, monospace; line-height: 27px;&quot;&gt;&lt;span style=&quot;background-color: rgb(255, 255, 255);&quot;&gt;&lt;font style=&quot;font-size: 16px;&quot;&gt;return &lt;font style=&quot;font-size: 16px;&quot;&gt;Reflect.get(arrayInstrumentations,&lt;/font&gt;&lt;/font&gt;&lt;/span&gt;&lt;/div&gt;&lt;div style=&quot;font-family: Consolas, &amp;quot;Courier New&amp;quot;, monospace; line-height: 27px;&quot;&gt;&lt;span style=&quot;background-color: rgb(255, 255, 255);&quot;&gt;&lt;font style=&quot;font-size: 16px;&quot;&gt;&amp;nbsp;key, receiver)&lt;/font&gt;&lt;/span&gt;&lt;/div&gt;" style="rounded=1;whiteSpace=wrap;html=1;fontSize=16;" parent="1" vertex="1">
          <mxGeometry x="-260" y="1400" width="400" height="60" as="geometry" />
        </mxCell>
        <mxCell id="02nY0yU2g49zin4ahf_P-76" value="" style="endArrow=classic;html=1;rounded=0;exitX=0;exitY=0.5;exitDx=0;exitDy=0;entryX=0.5;entryY=0;entryDx=0;entryDy=0;" parent="1" source="02nY0yU2g49zin4ahf_P-70" target="02nY0yU2g49zin4ahf_P-75" edge="1">
          <mxGeometry width="50" height="50" relative="1" as="geometry">
            <mxPoint x="90" y="1350" as="sourcePoint" />
            <mxPoint x="90" y="1390" as="targetPoint" />
            <Array as="points">
              <mxPoint x="-60" y="1360" />
            </Array>
          </mxGeometry>
        </mxCell>
        <mxCell id="02nY0yU2g49zin4ahf_P-77" value="Y" style="edgeLabel;html=1;align=center;verticalAlign=middle;resizable=0;points=[];fontSize=16;" parent="02nY0yU2g49zin4ahf_P-76" vertex="1" connectable="0">
          <mxGeometry x="-0.0209" y="-1" relative="1" as="geometry">
            <mxPoint as="offset" />
          </mxGeometry>
        </mxCell>
        <mxCell id="02nY0yU2g49zin4ahf_P-78" value="&lt;div style=&quot;font-family: Consolas, &amp;quot;Courier New&amp;quot;, monospace; line-height: 27px;&quot;&gt;&lt;span style=&quot;background-color: rgb(255, 255, 255);&quot;&gt;&lt;font style=&quot;font-size: 16px;&quot;&gt;return hasOwnProperty&lt;/font&gt;&lt;/span&gt;&lt;/div&gt;&lt;div style=&quot;font-family: Consolas, &amp;quot;Courier New&amp;quot;, monospace; line-height: 27px;&quot;&gt;&lt;span style=&quot;background-color: rgb(255, 255, 255);&quot;&gt;&lt;font style=&quot;font-size: 16px;&quot;&gt;[fn 内部重写]&lt;/font&gt;&lt;/span&gt;&lt;/div&gt;" style="rounded=1;whiteSpace=wrap;html=1;fontSize=16;" parent="1" vertex="1">
          <mxGeometry x="-33" y="1570" width="205" height="60" as="geometry" />
        </mxCell>
        <mxCell id="02nY0yU2g49zin4ahf_P-79" value="" style="endArrow=classic;html=1;rounded=0;exitX=0;exitY=0.5;exitDx=0;exitDy=0;entryX=0.5;entryY=0;entryDx=0;entryDy=0;" parent="1" source="02nY0yU2g49zin4ahf_P-73" target="02nY0yU2g49zin4ahf_P-78" edge="1">
          <mxGeometry width="50" height="50" relative="1" as="geometry">
            <mxPoint x="240" y="1574" as="sourcePoint" />
            <mxPoint x="240" y="1654" as="targetPoint" />
            <Array as="points">
              <mxPoint x="70" y="1520" />
            </Array>
          </mxGeometry>
        </mxCell>
        <mxCell id="02nY0yU2g49zin4ahf_P-82" value="Y" style="edgeLabel;html=1;align=center;verticalAlign=middle;resizable=0;points=[];" parent="02nY0yU2g49zin4ahf_P-79" vertex="1" connectable="0">
          <mxGeometry x="-0.1632" y="3" relative="1" as="geometry">
            <mxPoint as="offset" />
          </mxGeometry>
        </mxCell>
        <mxCell id="02nY0yU2g49zin4ahf_P-80" value="" style="endArrow=classic;html=1;rounded=0;exitX=0.5;exitY=1;exitDx=0;exitDy=0;entryX=0;entryY=0.5;entryDx=0;entryDy=0;" parent="1" source="02nY0yU2g49zin4ahf_P-75" target="02nY0yU2g49zin4ahf_P-23" edge="1">
          <mxGeometry width="50" height="50" relative="1" as="geometry">
            <mxPoint x="-230" y="1650" as="sourcePoint" />
            <mxPoint x="90" y="2470" as="targetPoint" />
            <Array as="points">
              <mxPoint x="-60" y="2940" />
            </Array>
          </mxGeometry>
        </mxCell>
        <mxCell id="02nY0yU2g49zin4ahf_P-81" value="" style="endArrow=classic;html=1;rounded=0;exitX=0.5;exitY=1;exitDx=0;exitDy=0;entryX=0;entryY=0.5;entryDx=0;entryDy=0;" parent="1" source="02nY0yU2g49zin4ahf_P-78" target="02nY0yU2g49zin4ahf_P-23" edge="1">
          <mxGeometry width="50" height="50" relative="1" as="geometry">
            <mxPoint x="190" y="1960" as="sourcePoint" />
            <mxPoint x="90" y="2470" as="targetPoint" />
            <Array as="points">
              <mxPoint x="70" y="2940" />
            </Array>
          </mxGeometry>
        </mxCell>
        <mxCell id="02nY0yU2g49zin4ahf_P-83" value="const res = Reflect.get(target, key, receiver)" style="rounded=1;whiteSpace=wrap;html=1;fontSize=16;" parent="1" vertex="1">
          <mxGeometry x="200" y="1670" width="282" height="50" as="geometry" />
        </mxCell>
        <mxCell id="02nY0yU2g49zin4ahf_P-84" value="" style="endArrow=classic;html=1;rounded=0;exitX=1;exitY=0.5;exitDx=0;exitDy=0;entryX=0.5;entryY=0;entryDx=0;entryDy=0;" parent="1" source="02nY0yU2g49zin4ahf_P-66" target="02nY0yU2g49zin4ahf_P-83" edge="1">
          <mxGeometry width="50" height="50" relative="1" as="geometry">
            <mxPoint x="830" y="1540" as="sourcePoint" />
            <mxPoint x="880" y="1490" as="targetPoint" />
            <Array as="points">
              <mxPoint x="560" y="1240" />
              <mxPoint x="560" y="1600" />
              <mxPoint x="340" y="1600" />
            </Array>
          </mxGeometry>
        </mxCell>
        <mxCell id="02nY0yU2g49zin4ahf_P-86" value="" style="endArrow=classic;html=1;rounded=0;exitX=0.5;exitY=1;exitDx=0;exitDy=0;entryX=0.5;entryY=0;entryDx=0;entryDy=0;" parent="1" source="02nY0yU2g49zin4ahf_P-83" target="02nY0yU2g49zin4ahf_P-87" edge="1">
          <mxGeometry width="50" height="50" relative="1" as="geometry">
            <mxPoint x="640" y="1810" as="sourcePoint" />
            <mxPoint x="341" y="1760" as="targetPoint" />
          </mxGeometry>
        </mxCell>
        <mxCell id="02nY0yU2g49zin4ahf_P-87" value="判断isSymbol(key) ? builtInSymbols.has(key) :&amp;nbsp;&lt;br&gt;isNonTrackableKeys(key)" style="rhombus;whiteSpace=wrap;html=1;fontSize=16;" parent="1" vertex="1">
          <mxGeometry x="181" y="1760" width="320" height="80" as="geometry" />
        </mxCell>
        <mxCell id="02nY0yU2g49zin4ahf_P-88" value="return res" style="rounded=1;whiteSpace=wrap;html=1;fontSize=16;" parent="1" vertex="1">
          <mxGeometry x="281" y="1880" width="120" height="40" as="geometry" />
        </mxCell>
        <mxCell id="02nY0yU2g49zin4ahf_P-89" value="" style="endArrow=classic;html=1;rounded=0;exitX=0.5;exitY=1;exitDx=0;exitDy=0;entryX=0.5;entryY=0;entryDx=0;entryDy=0;" parent="1" source="02nY0yU2g49zin4ahf_P-87" target="02nY0yU2g49zin4ahf_P-88" edge="1">
          <mxGeometry width="50" height="50" relative="1" as="geometry">
            <mxPoint x="570" y="1770" as="sourcePoint" />
            <mxPoint x="570" y="1810" as="targetPoint" />
          </mxGeometry>
        </mxCell>
        <mxCell id="02nY0yU2g49zin4ahf_P-90" value="Y" style="edgeLabel;html=1;align=center;verticalAlign=middle;resizable=0;points=[];fontSize=16;" parent="02nY0yU2g49zin4ahf_P-89" vertex="1" connectable="0">
          <mxGeometry x="-0.2278" relative="1" as="geometry">
            <mxPoint as="offset" />
          </mxGeometry>
        </mxCell>
        <mxCell id="02nY0yU2g49zin4ahf_P-91" value="" style="endArrow=classic;html=1;rounded=0;exitX=0.5;exitY=1;exitDx=0;exitDy=0;entryX=0;entryY=0.5;entryDx=0;entryDy=0;" parent="1" source="02nY0yU2g49zin4ahf_P-88" target="02nY0yU2g49zin4ahf_P-23" edge="1">
          <mxGeometry width="50" height="50" relative="1" as="geometry">
            <mxPoint x="310" y="2070" as="sourcePoint" />
            <mxPoint x="360" y="2020" as="targetPoint" />
            <Array as="points">
              <mxPoint x="340" y="2940" />
            </Array>
          </mxGeometry>
        </mxCell>
        <mxCell id="02nY0yU2g49zin4ahf_P-92" value="" style="endArrow=classic;html=1;rounded=0;exitX=1;exitY=0.5;exitDx=0;exitDy=0;entryX=0.5;entryY=0;entryDx=0;entryDy=0;" parent="1" source="02nY0yU2g49zin4ahf_P-87" target="02nY0yU2g49zin4ahf_P-93" edge="1">
          <mxGeometry width="50" height="50" relative="1" as="geometry">
            <mxPoint x="660" y="1970" as="sourcePoint" />
            <mxPoint x="710" y="1920" as="targetPoint" />
            <Array as="points">
              <mxPoint x="600" y="1800" />
            </Array>
          </mxGeometry>
        </mxCell>
        <mxCell id="02nY0yU2g49zin4ahf_P-93" value="判断!isReadonly" style="rhombus;whiteSpace=wrap;html=1;fontSize=16;" parent="1" vertex="1">
          <mxGeometry x="440" y="1870" width="320" height="80" as="geometry" />
        </mxCell>
        <mxCell id="02nY0yU2g49zin4ahf_P-95" value="track(target, TrackOpTypes.GET, key)" style="rounded=1;whiteSpace=wrap;html=1;fontSize=16;" parent="1" vertex="1">
          <mxGeometry x="510" y="1998" width="180" height="70" as="geometry" />
        </mxCell>
        <mxCell id="02nY0yU2g49zin4ahf_P-96" value="" style="endArrow=classic;html=1;rounded=0;exitX=0.5;exitY=1;exitDx=0;exitDy=0;entryX=0.5;entryY=0;entryDx=0;entryDy=0;" parent="1" source="02nY0yU2g49zin4ahf_P-93" target="02nY0yU2g49zin4ahf_P-95" edge="1">
          <mxGeometry width="50" height="50" relative="1" as="geometry">
            <mxPoint x="790" y="2010" as="sourcePoint" />
            <mxPoint x="840" y="1960" as="targetPoint" />
          </mxGeometry>
        </mxCell>
        <mxCell id="02nY0yU2g49zin4ahf_P-97" value="Y" style="edgeLabel;html=1;align=center;verticalAlign=middle;resizable=0;points=[];fontSize=16;" parent="02nY0yU2g49zin4ahf_P-96" vertex="1" connectable="0">
          <mxGeometry x="-0.2123" y="-1" relative="1" as="geometry">
            <mxPoint x="1" as="offset" />
          </mxGeometry>
        </mxCell>
        <mxCell id="02nY0yU2g49zin4ahf_P-98" value="判断isShallow" style="rhombus;whiteSpace=wrap;html=1;fontSize=16;" parent="1" vertex="1">
          <mxGeometry x="480" y="2120" width="240" height="70" as="geometry" />
        </mxCell>
        <mxCell id="02nY0yU2g49zin4ahf_P-99" value="" style="endArrow=classic;html=1;rounded=0;exitX=0.5;exitY=1;exitDx=0;exitDy=0;entryX=0.5;entryY=0;entryDx=0;entryDy=0;" parent="1" source="02nY0yU2g49zin4ahf_P-95" target="02nY0yU2g49zin4ahf_P-98" edge="1">
          <mxGeometry width="50" height="50" relative="1" as="geometry">
            <mxPoint x="740" y="2110" as="sourcePoint" />
            <mxPoint x="790" y="2060" as="targetPoint" />
          </mxGeometry>
        </mxCell>
        <mxCell id="02nY0yU2g49zin4ahf_P-100" value="return res" style="rounded=1;whiteSpace=wrap;html=1;fontSize=16;" parent="1" vertex="1">
          <mxGeometry x="530" y="2240" width="140" height="40" as="geometry" />
        </mxCell>
        <mxCell id="02nY0yU2g49zin4ahf_P-101" value="" style="endArrow=classic;html=1;rounded=0;exitX=0.5;exitY=1;exitDx=0;exitDy=0;entryX=0.5;entryY=0;entryDx=0;entryDy=0;" parent="1" source="02nY0yU2g49zin4ahf_P-98" target="02nY0yU2g49zin4ahf_P-100" edge="1">
          <mxGeometry width="50" height="50" relative="1" as="geometry">
            <mxPoint x="730" y="2240" as="sourcePoint" />
            <mxPoint x="780" y="2190" as="targetPoint" />
          </mxGeometry>
        </mxCell>
        <mxCell id="02nY0yU2g49zin4ahf_P-102" value="Y" style="edgeLabel;html=1;align=center;verticalAlign=middle;resizable=0;points=[];fontSize=16;" parent="02nY0yU2g49zin4ahf_P-101" vertex="1" connectable="0">
          <mxGeometry x="-0.213" relative="1" as="geometry">
            <mxPoint as="offset" />
          </mxGeometry>
        </mxCell>
        <mxCell id="02nY0yU2g49zin4ahf_P-104" value="判断isRef(res)" style="rhombus;whiteSpace=wrap;html=1;fontSize=16;" parent="1" vertex="1">
          <mxGeometry x="760" y="2210" width="240" height="70" as="geometry" />
        </mxCell>
        <mxCell id="02nY0yU2g49zin4ahf_P-105" value="" style="endArrow=classic;html=1;rounded=0;exitX=1;exitY=0.5;exitDx=0;exitDy=0;entryX=0.5;entryY=0;entryDx=0;entryDy=0;" parent="1" source="02nY0yU2g49zin4ahf_P-98" target="02nY0yU2g49zin4ahf_P-104" edge="1">
          <mxGeometry width="50" height="50" relative="1" as="geometry">
            <mxPoint x="870" y="2210" as="sourcePoint" />
            <mxPoint x="920" y="2160" as="targetPoint" />
            <Array as="points">
              <mxPoint x="880" y="2155" />
            </Array>
          </mxGeometry>
        </mxCell>
        <mxCell id="02nY0yU2g49zin4ahf_P-106" value="&lt;font style=&quot;font-size: 16px;&quot;&gt;return&amp;nbsp;targetIsArray&lt;span style=&quot;font-family: Consolas, &amp;quot;Courier New&amp;quot;, monospace; background-color: rgb(255, 255, 255);&quot;&gt; &lt;/span&gt;&lt;font style=&quot;font-size: 16px;&quot;&gt;&lt;span style=&quot;background-color: rgb(255, 255, 255);&quot;&gt;&lt;span style=&quot;font-family: Consolas, &amp;quot;Courier New&amp;quot;, monospace;&quot;&gt;&amp;amp;&amp;amp;&lt;/span&gt;&lt;span style=&quot;color: rgb(204, 204, 204); font-family: Consolas, &amp;quot;Courier New&amp;quot;, monospace;&quot;&gt; &lt;/span&gt;&lt;/span&gt;&lt;span style=&quot;font-family: Consolas, &amp;quot;Courier New&amp;quot;, monospace; background-color: rgb(255, 255, 255);&quot;&gt;isIntegerKey&lt;/span&gt;&lt;span style=&quot;font-family: Consolas, &amp;quot;Courier New&amp;quot;, monospace; background-color: rgb(255, 255, 255);&quot;&gt;(&lt;/span&gt;&lt;span style=&quot;font-family: Consolas, &amp;quot;Courier New&amp;quot;, monospace;&quot;&gt;key&lt;/span&gt;&lt;span style=&quot;font-family: Consolas, &amp;quot;Courier New&amp;quot;, monospace; background-color: rgb(255, 255, 255);&quot;&gt;)&lt;/span&gt;&lt;span style=&quot;font-family: Consolas, &amp;quot;Courier New&amp;quot;, monospace; background-color: rgb(255, 255, 255);&quot;&gt; &lt;/span&gt;&lt;span style=&quot;font-family: Consolas, &amp;quot;Courier New&amp;quot;, monospace;&quot;&gt;?&lt;/span&gt;&lt;span style=&quot;font-family: Consolas, &amp;quot;Courier New&amp;quot;, monospace; background-color: rgb(255, 255, 255);&quot;&gt; &lt;/span&gt;&lt;span style=&quot;font-family: Consolas, &amp;quot;Courier New&amp;quot;, monospace;&quot;&gt;res&lt;/span&gt;&lt;span style=&quot;color: rgb(204, 204, 204); font-family: Consolas, &amp;quot;Courier New&amp;quot;, monospace; background-color: rgb(255, 255, 255);&quot;&gt; &lt;/span&gt;&lt;span style=&quot;font-family: Consolas, &amp;quot;Courier New&amp;quot;, monospace;&quot;&gt;:&lt;/span&gt;&lt;span style=&quot;font-family: Consolas, &amp;quot;Courier New&amp;quot;, monospace; background-color: rgb(255, 255, 255);&quot;&gt; &lt;/span&gt;&lt;span style=&quot;font-family: Consolas, &amp;quot;Courier New&amp;quot;, monospace;&quot;&gt;res&lt;/span&gt;&lt;span style=&quot;font-family: Consolas, &amp;quot;Courier New&amp;quot;, monospace; background-color: rgb(255, 255, 255);&quot;&gt;.&lt;/span&gt;&lt;span style=&quot;font-family: Consolas, &amp;quot;Courier New&amp;quot;, monospace;&quot;&gt;value&lt;/span&gt;&lt;/font&gt;&lt;/font&gt;" style="rounded=1;whiteSpace=wrap;html=1;fontSize=16;" parent="1" vertex="1">
          <mxGeometry x="775" y="2320" width="210" height="70" as="geometry" />
        </mxCell>
        <mxCell id="02nY0yU2g49zin4ahf_P-107" value="" style="endArrow=classic;html=1;rounded=0;exitX=0.5;exitY=1;exitDx=0;exitDy=0;entryX=0.5;entryY=0;entryDx=0;entryDy=0;" parent="1" source="02nY0yU2g49zin4ahf_P-104" target="02nY0yU2g49zin4ahf_P-106" edge="1">
          <mxGeometry width="50" height="50" relative="1" as="geometry">
            <mxPoint x="1060" y="2350" as="sourcePoint" />
            <mxPoint x="1110" y="2300" as="targetPoint" />
          </mxGeometry>
        </mxCell>
        <mxCell id="02nY0yU2g49zin4ahf_P-108" value="判断&lt;font style=&quot;font-size: 16px;&quot;&gt;isObject&lt;span style=&quot;font-family: Consolas, &amp;quot;Courier New&amp;quot;, monospace; background-color: rgb(255, 255, 255);&quot;&gt;(&lt;/span&gt;&lt;span style=&quot;font-family: Consolas, &amp;quot;Courier New&amp;quot;, monospace;&quot;&gt;&lt;font style=&quot;font-size: 16px;&quot;&gt;res&lt;/font&gt;&lt;/span&gt;&lt;span style=&quot;font-family: Consolas, &amp;quot;Courier New&amp;quot;, monospace; background-color: rgb(255, 255, 255);&quot;&gt;)&lt;/span&gt;&lt;/font&gt;" style="rhombus;whiteSpace=wrap;html=1;fontSize=16;" parent="1" vertex="1">
          <mxGeometry x="1080" y="2320" width="240" height="70" as="geometry" />
        </mxCell>
        <mxCell id="02nY0yU2g49zin4ahf_P-109" value="" style="endArrow=classic;html=1;rounded=0;exitX=1;exitY=0.5;exitDx=0;exitDy=0;" parent="1" source="02nY0yU2g49zin4ahf_P-104" target="02nY0yU2g49zin4ahf_P-108" edge="1">
          <mxGeometry width="50" height="50" relative="1" as="geometry">
            <mxPoint x="1030" y="2155" as="sourcePoint" />
            <mxPoint x="1190" y="2210" as="targetPoint" />
            <Array as="points">
              <mxPoint x="1200" y="2245" />
            </Array>
          </mxGeometry>
        </mxCell>
        <mxCell id="02nY0yU2g49zin4ahf_P-111" value="&lt;div style=&quot;font-family: Consolas, &amp;quot;Courier New&amp;quot;, monospace; line-height: 27px;&quot;&gt;&lt;span style=&quot;background-color: rgb(255, 255, 255);&quot;&gt;&lt;font style=&quot;font-size: 16px;&quot;&gt;return isReadonly ? readonly(res) : reactive(res)&lt;/font&gt;&lt;/span&gt;&lt;/div&gt;" style="rounded=1;whiteSpace=wrap;html=1;fontSize=16;" parent="1" vertex="1">
          <mxGeometry x="1067.5" y="2440" width="265" height="70" as="geometry" />
        </mxCell>
        <mxCell id="02nY0yU2g49zin4ahf_P-112" value="" style="endArrow=classic;html=1;rounded=0;exitX=0.5;exitY=1;exitDx=0;exitDy=0;entryX=0.5;entryY=0;entryDx=0;entryDy=0;" parent="1" source="02nY0yU2g49zin4ahf_P-108" target="02nY0yU2g49zin4ahf_P-111" edge="1">
          <mxGeometry width="50" height="50" relative="1" as="geometry">
            <mxPoint x="970" y="2460" as="sourcePoint" />
            <mxPoint x="1020" y="2410" as="targetPoint" />
          </mxGeometry>
        </mxCell>
        <mxCell id="02nY0yU2g49zin4ahf_P-113" value="" style="endArrow=classic;html=1;rounded=0;exitX=0.5;exitY=1;exitDx=0;exitDy=0;entryX=0.5;entryY=0;entryDx=0;entryDy=0;" parent="1" source="02nY0yU2g49zin4ahf_P-106" target="02nY0yU2g49zin4ahf_P-23" edge="1">
          <mxGeometry width="50" height="50" relative="1" as="geometry">
            <mxPoint x="1070" y="2830" as="sourcePoint" />
            <mxPoint x="820" y="2850" as="targetPoint" />
            <Array as="points" />
          </mxGeometry>
        </mxCell>
        <mxCell id="02nY0yU2g49zin4ahf_P-114" value="" style="endArrow=classic;html=1;rounded=0;exitX=0.5;exitY=1;exitDx=0;exitDy=0;entryX=1;entryY=0.5;entryDx=0;entryDy=0;" parent="1" source="02nY0yU2g49zin4ahf_P-111" target="02nY0yU2g49zin4ahf_P-23" edge="1">
          <mxGeometry width="50" height="50" relative="1" as="geometry">
            <mxPoint x="1000" y="2720" as="sourcePoint" />
            <mxPoint x="1050" y="2670" as="targetPoint" />
            <Array as="points">
              <mxPoint x="1200" y="2940" />
            </Array>
          </mxGeometry>
        </mxCell>
      </root>
    </mxGraphModel>
  </diagram>
</mxfile>
